RBDS025runT25_grf
version=1
nRows=37
nColumns=19
inDegrees=no
endheader
time	ground_force_r_vx	ground_force_r_vy	ground_force_r_vz	ground_force_r_px	ground_force_r_py	ground_force_r_pz	ground_force_r_mx	ground_force_r_my	ground_force_r_mz	ground_force_l_vx	ground_force_l_vy	ground_force_l_vz	ground_force_l_px	ground_force_l_py	ground_force_l_pz	ground_force_l_mx	ground_force_l_my	ground_force_l_mz
      0.00000000	      0.00000000	      0.00000000	      0.00000000	      0.00000000	      0.00000000	      0.00000000	      0.00000000	      0.00000000	      0.00000000	    -43.31195422	   1416.05513687	     32.30628678	      2.10254488	      0.00000000	      0.93354771	     -0.00000000	      5.53960221	      0.00000000
      0.00100000	      0.00000000	      0.00000000	      0.00000000	      0.00000000	      0.00000000	      0.00000000	      0.00000000	      0.00000000	      0.00000000	    -39.58556712	   1408.58512497	     31.55478848	      2.10098259	      0.00000000	      0.93358203	      0.00000000	      5.67904837	      0.00000000
      0.00200000	      0.00000000	      0.00000000	      0.00000000	      0.00000000	      0.00000000	      0.00000000	      0.00000000	      0.00000000	      0.00000000	    -35.85918002	   1401.11511308	     30.80329017	      2.09942030	      0.00000000	      0.93361635	      0.00000000	      5.81849452	      0.00000000
      0.00300000	      0.00000000	      0.00000000	      0.00000000	      0.00000000	      0.00000000	      0.00000000	      0.00000000	      0.00000000	      0.00000000	    -32.13279292	   1393.64510118	     30.05179187	      2.09785801	      0.00000000	      0.93365068	      0.00000000	      5.95794068	      0.00000000
      0.00400000	      0.00000000	      0.00000000	      0.00000000	      0.00000000	      0.00000000	      0.00000000	      0.00000000	      0.00000000	      0.00000000	    -28.40621108	   1386.13115317	     29.29432908	      2.09629236	      0.00000000	      0.93368669	      0.00000000	      6.09386018	      0.00000000
      0.00500000	      0.00000000	      0.00000000	      0.00000000	      0.00000000	      0.00000000	      0.00000000	      0.00000000	      0.00000000	      0.00000000	    -24.67953187	   1378.59523709	     28.53388406	      2.09472503	      0.00000000	      0.93372355	      0.00000000	      6.22801635	      0.00000000
      0.00600000	      0.00000000	      0.00000000	      0.00000000	      0.00000000	      0.00000000	      0.00000000	      0.00000000	      0.00000000	      0.00000000	    -20.95285266	   1371.05932102	     27.77343904	      2.09315769	      0.00000000	      0.93376041	      0.00000000	      6.36217253	      0.00000000
      0.00700000	      0.00000000	      0.00000000	      0.00000000	      0.00000000	      0.00000000	      0.00000000	      0.00000000	      0.00000000	      0.00000000	    -17.23561372	   1363.47649863	     27.00975244	      2.09158529	      0.00000000	      0.93379814	      0.00000000	      6.49377431	      0.00000000
      0.00800000	      0.00000000	      0.00000000	      0.00000000	      0.00000000	      0.00000000	      0.00000000	      0.00000000	      0.00000000	      0.00000000	    -13.53725533	   1355.79986361	     26.23958270	      2.09000273	      0.00000000	      0.93383760	      0.00000000	      6.62026730	      0.00000000
      0.00900000	      0.00000000	      0.00000000	      0.00000000	      0.00000000	      0.00000000	      0.00000000	      0.00000000	      0.00000000	      0.00000000	     -9.83889693	   1348.12322860	     25.46941295	      2.08842018	      0.00000000	      0.93387706	      0.00000000	      6.74676029	      0.00000000
      0.01000000	      0.00000000	      0.00000000	      0.00000000	      0.00000000	      0.00000000	      0.00000000	      0.00000000	      0.00000000	      0.00000000	     -6.14053854	   1340.44659358	     24.69924320	      2.08683763	      0.00000000	      0.93391652	      0.00000000	      6.87325328	      0.00000000
      0.01100000	      0.00000000	      0.00000000	      0.00000000	      0.00000000	      0.00000000	      0.00000000	      0.00000000	      0.00000000	      0.00000000	     -2.49951352	   1332.54935074	     23.91945116	      2.08522939	      0.00000000	      0.93395844	      0.00000000	      6.98984477	      0.00000000
      0.01200000	      0.00000000	      0.00000000	      0.00000000	      0.00000000	      0.00000000	      0.00000000	      0.00000000	      0.00000000	      0.00000000	      1.14151149	   1324.65210790	     23.13965913	      2.08362115	      0.00000000	      0.93400036	      0.00000000	      7.10643626	      0.00000000
      0.01300000	      0.00000000	      0.00000000	      0.00000000	      0.00000000	      0.00000000	      0.00000000	      0.00000000	      0.00000000	      0.00000000	      4.78253650	   1316.75486506	     22.35986709	      2.08201291	      0.00000000	      0.93404228	      0.00000000	      7.22302774	      0.00000000
      0.01400000	      0.00000000	      0.00000000	      0.00000000	      0.00000000	      0.00000000	      0.00000000	      0.00000000	      0.00000000	      0.00000000	      8.36587540	   1308.65631769	     21.57449758	      2.08038078	      0.00000000	      0.93408560	      0.00000000	      7.33167225	      0.00000000
      0.01500000	      0.00000000	      0.00000000	      0.00000000	      0.00000000	      0.00000000	      0.00000000	      0.00000000	      0.00000000	      0.00000000	     11.92037124	   1300.45711805	     20.78633934	      2.07873670	      0.00000000	      0.93412960	      0.00000000	      7.43634328	      0.00000000
      0.01600000	      0.00000000	      0.00000000	      0.00000000	      0.00000000	      0.00000000	      0.00000000	      0.00000000	      0.00000000	      0.00000000	     15.47486709	   1292.25791842	     19.99818109	      2.07709262	      0.00000000	      0.93417361	      0.00000000	      7.54101430	      0.00000000
      0.01700000	      0.00000000	      0.00000000	      0.00000000	      0.00000000	      0.00000000	      0.00000000	      0.00000000	      0.00000000	      0.00000000	     18.99081360	   1283.93167722	     19.20810106	      2.07543351	      0.00000000	      0.93421810	      0.00000000	      7.64113378	      0.00000000
      0.01800000	      0.00000000	      0.00000000	      0.00000000	      0.00000000	      0.00000000	      0.00000000	      0.00000000	      0.00000000	      0.00000000	     22.42966147	   1275.35135290	     18.41417749	      2.07374431	      0.00000000	      0.93426356	      0.00000000	      7.73215018	      0.00000000
      0.01900000	      0.00000000	      0.00000000	      0.00000000	      0.00000000	      0.00000000	      0.00000000	      0.00000000	      0.00000000	      0.00000000	     25.86850933	   1266.77102857	     17.62025391	      2.07205512	      0.00000000	      0.93430903	      0.00000000	      7.82316658	      0.00000000
      0.02000000	      0.00000000	      0.00000000	      0.00000000	      0.00000000	      0.00000000	      0.00000000	      0.00000000	      0.00000000	      0.00000000	     29.30735719	   1258.19070425	     16.82633033	      2.07036593	      0.00000000	      0.93435449	      0.00000000	      7.91418297	      0.00000000
      0.02100000	      0.00000000	      0.00000000	      0.00000000	      0.00000000	      0.00000000	      0.00000000	      0.00000000	      0.00000000	      0.00000000	     32.60182673	   1249.15578765	     16.03068150	      2.06862368	      0.00000000	      0.93440052	      0.00000000	      7.99013932	      0.00000000
      0.02200000	      0.00000000	      0.00000000	      0.00000000	      0.00000000	      0.00000000	      0.00000000	      0.00000000	      0.00000000	      0.00000000	     35.89629627	   1240.12087104	     15.23503268	      2.06688143	      0.00000000	      0.93444656	      0.00000000	      8.06609567	      0.00000000
      0.02300000	      0.00000000	      0.00000000	      0.00000000	      0.00000000	      0.00000000	      0.00000000	      0.00000000	      0.00000000	      0.00000000	     39.19076581	   1231.08595444	     14.43938385	      2.06513917	      0.00000000	      0.93449259	      0.00000000	      8.14205202	      0.00000000
      0.02400000	      0.00000000	      0.00000000	      0.00000000	      0.00000000	      0.00000000	      0.00000000	      0.00000000	      0.00000000	      0.00000000	     42.37032999	   1221.70497170	     13.64623198	      2.06335735	      0.00000000	      0.93453824	      0.00000000	      8.20726549	      0.00000000
      0.02500000	      0.00000000	      0.00000000	      0.00000000	      0.00000000	      0.00000000	      0.00000000	      0.00000000	      0.00000000	      0.00000000	     45.49244149	   1212.15095590	     12.85432858	      2.06155574	      0.00000000	      0.93458370	      0.00000000	      8.26710751	      0.00000000
      0.02600000	      0.00000000	      0.00000000	      0.00000000	      0.00000000	      0.00000000	      0.00000000	      0.00000000	      0.00000000	      0.00000000	     48.61455300	   1202.59694009	     12.06242518	      2.05975414	      0.00000000	      0.93462917	      0.00000000	      8.32694954	      0.00000000
      0.02700000	      0.00000000	      0.00000000	      0.00000000	      0.00000000	      0.00000000	      0.00000000	      0.00000000	      0.00000000	      0.00000000	     51.67027049	   1192.85233645	     11.27403403	      2.05793128	      0.00000000	      0.93467398	      0.00000000	      8.38118659	      0.00000000
      0.02800000	      0.00000000	      0.00000000	      0.00000000	      0.00000000	      0.00000000	      0.00000000	      0.00000000	      0.00000000	      0.00000000	     54.59319995	   1182.72655715	     10.49266735	      2.05606591	      0.00000000	      0.93471750	      0.00000000	      8.42421371	      0.00000000
      0.02900000	      0.00000000	      0.00000000	      0.00000000	      0.00000000	      0.00000000	      0.00000000	      0.00000000	      0.00000000	      0.00000000	     57.51612941	   1172.60077785	      9.71130067	      2.05420055	      0.00000000	      0.93476101	      0.00000000	      8.46724083	      0.00000000
      0.03000000	      0.00000000	      0.00000000	      0.00000000	      0.00000000	      0.00000000	      0.00000000	      0.00000000	      0.00000000	      0.00000000	     60.43905887	   1162.47499856	      8.92993400	      2.05233519	      0.00000000	      0.93480453	      0.00000000	      8.51026795	      0.00000000
      0.03100000	      0.00000000	      0.00000000	      0.00000000	      0.00000000	      0.00000000	      0.00000000	      0.00000000	      0.00000000	      0.00000000	     63.13757336	   1151.73903999	      8.16701306	      2.05040364	      0.00000000	      0.93484454	      0.00000000	      8.53611923	     -0.00000000
      0.03200000	      0.00000000	      0.00000000	      0.00000000	      0.00000000	      0.00000000	      0.00000000	      0.00000000	      0.00000000	      0.00000000	     65.83608785	   1141.00308142	      7.40409213	      2.04847210	      0.00000000	      0.93488455	      0.00000000	      8.56197051	     -0.00000000
      0.03300000	      0.00000000	      0.00000000	      0.00000000	      0.00000000	      0.00000000	      0.00000000	      0.00000000	      0.00000000	      0.00000000	     68.53460234	   1130.26712286	      6.64117120	      2.04654055	      0.00000000	      0.93492455	      0.00000000	      8.58782179	     -0.00000000
      0.03400000	      0.00000000	      0.00000000	      0.00000000	      0.00000000	      0.00000000	      0.00000000	      0.00000000	      0.00000000	      0.00000000	     71.06804595	   1119.10950433	      5.89637760	      2.04456459	      0.00000000	      0.93496108	      0.00000000	      8.60219053	     -0.00000000
      0.03500000	      0.00000000	      0.00000000	      0.00000000	      0.00000000	      0.00000000	      0.00000000	      0.00000000	      0.00000000	      0.00000000	     73.51895412	   1107.74105583	      5.16064767	      2.04256643	      0.00000000	      0.93499587	      0.00000000	      8.61081801	     -0.00000000
      0.03600000	      0.00000000	      0.00000000	      0.00000000	      0.00000000	      0.00000000	      0.00000000	      0.00000000	      0.00000000	      0.00000000	     75.96986229	   1096.37260733	      4.42491774	      2.04056827	      0.00000000	      0.93503066	      0.00000000	      8.61944548	     -0.00000000
